<svg width="12" height="13" viewBox="0 0 12 13" fill="none" xmlns="http://www.w3.org/2000/svg">
    <path d="M4.81263 1.356C5.00924 1.1621 5.01144 0.845524 4.81754 0.64891C4.62364 0.452297 4.30706 0.450098 4.11045 0.644L4.81263 1.356ZM1 4.41379L0.64891 4.05779C0.553636 4.15175 0.5 4.27998 0.5 4.41379C0.5 4.54761 0.553636 4.67583 0.64891 4.76979L1 4.41379ZM4.11045 8.18359C4.30706 8.37749 4.62364 8.37529 4.81754 8.17868C5.01144 7.98206 5.00924 7.66549 4.81263 7.47159L4.11045 8.18359ZM10.5 12C10.5 12.2761 10.7239 12.5 11 12.5C11.2761 12.5 11.5 12.2761 11.5 12H10.5ZM4.11045 0.644L0.64891 4.05779L1.35109 4.76979L4.81263 1.356L4.11045 0.644ZM0.64891 4.76979L4.11045 8.18359L4.81263 7.47159L1.35109 4.05779L0.64891 4.76979ZM1 4.91379C1.53797 4.91379 2.10059 4.89449 2.6586 4.87862C3.22059 4.86264 3.78234 4.84995 4.33692 4.86153C5.45071 4.88478 6.49712 5.00594 7.3992 5.37048C8.2863 5.72896 9.04554 6.32713 9.59253 7.33978C10.1466 8.36558 10.5 9.8491 10.5 12H11.5C11.5 9.7509 11.1322 8.08614 10.4724 6.86453C9.80542 5.62977 8.85793 4.88139 7.77387 4.44332C6.7048 4.0113 5.51563 3.88591 4.35779 3.86175C3.77655 3.84962 3.19348 3.86301 2.63017 3.87903C2.06287 3.89516 1.51972 3.91379 1 3.91379V4.91379Z" fill="#EF0D33"/>
</svg>
