<svg width="15" height="15" viewBox="0 0 15 15" fill="none" xmlns="http://www.w3.org/2000/svg">
    <path d="M14.4141 10.3125C14.7377 10.3125 15 10.0502 15 9.72656V3.51562C15 2.22328 13.9486 1.17188 12.6562 1.17188H11.8945V0.585938C11.8945 0.262324 11.6322 0 11.3086 0C10.985 0 10.7227 0.262324 10.7227 0.585938V1.17188H8.05664V0.585938C8.05664 0.262324 7.79432 0 7.4707 0C7.14709 0 6.88477 0.262324 6.88477 0.585938V1.17188H4.24805V0.585938C4.24805 0.262324 3.98572 0 3.66211 0C3.3385 0 3.07617 0.262324 3.07617 0.585938V1.17188H2.34375C1.05141 1.17188 0 2.22328 0 3.51562V12.6562C0 13.9486 1.05141 15 2.34375 15H12.6562C13.9486 15 15 13.9486 15 12.6562C15 12.3326 14.7377 12.0703 14.4141 12.0703C14.0904 12.0703 13.8281 12.3326 13.8281 12.6562C13.8281 13.3024 13.3024 13.8281 12.6562 13.8281H2.34375C1.69758 13.8281 1.17188 13.3024 1.17188 12.6562V3.51562C1.17188 2.86945 1.69758 2.34375 2.34375 2.34375H3.07617V2.92969C3.07617 3.2533 3.3385 3.51562 3.66211 3.51562C3.98572 3.51562 4.24805 3.2533 4.24805 2.92969V2.34375H6.88477V2.92969C6.88477 3.2533 7.14709 3.51562 7.4707 3.51562C7.79432 3.51562 8.05664 3.2533 8.05664 2.92969V2.34375H10.7227V2.92969C10.7227 3.2533 10.985 3.51562 11.3086 3.51562C11.6322 3.51562 11.8945 3.2533 11.8945 2.92969V2.34375H12.6562C13.3024 2.34375 13.8281 2.86945 13.8281 3.51562V9.72656C13.8281 10.0502 14.0904 10.3125 14.4141 10.3125Z" fill="#2C333F"/>
    <path d="M3.66211 6.73828C3.98571 6.73828 4.24805 6.47595 4.24805 6.15234C4.24805 5.82874 3.98571 5.56641 3.66211 5.56641C3.33851 5.56641 3.07617 5.82874 3.07617 6.15234C3.07617 6.47595 3.33851 6.73828 3.66211 6.73828Z" fill="#2C333F"/>
    <path d="M8.75977 6.73828C9.08337 6.73828 9.3457 6.47595 9.3457 6.15234C9.3457 5.82874 9.08337 5.56641 8.75977 5.56641C8.43616 5.56641 8.17383 5.82874 8.17383 6.15234C8.17383 6.47595 8.43616 6.73828 8.75977 6.73828Z" fill="#2C333F"/>
    <path d="M11.3086 6.73828C11.6322 6.73828 11.8945 6.47595 11.8945 6.15234C11.8945 5.82874 11.6322 5.56641 11.3086 5.56641C10.985 5.56641 10.7227 5.82874 10.7227 6.15234C10.7227 6.47595 10.985 6.73828 11.3086 6.73828Z" fill="#2C333F"/>
    <path d="M3.66211 9.28711C3.98571 9.28711 4.24805 9.02478 4.24805 8.70117C4.24805 8.37757 3.98571 8.11523 3.66211 8.11523C3.33851 8.11523 3.07617 8.37757 3.07617 8.70117C3.07617 9.02478 3.33851 9.28711 3.66211 9.28711Z" fill="#2C333F"/>
    <path d="M3.66211 11.8359C3.98571 11.8359 4.24805 11.5736 4.24805 11.25C4.24805 10.9264 3.98571 10.6641 3.66211 10.6641C3.33851 10.6641 3.07617 10.9264 3.07617 11.25C3.07617 11.5736 3.33851 11.8359 3.66211 11.8359Z" fill="#2C333F"/>
    <path d="M6.21094 6.73828C6.53454 6.73828 6.79688 6.47595 6.79688 6.15234C6.79688 5.82874 6.53454 5.56641 6.21094 5.56641C5.88733 5.56641 5.625 5.82874 5.625 6.15234C5.625 6.47595 5.88733 6.73828 6.21094 6.73828Z" fill="#2C333F"/>
    <path d="M6.21094 9.28711C6.53454 9.28711 6.79688 9.02478 6.79688 8.70117C6.79688 8.37757 6.53454 8.11523 6.21094 8.11523C5.88733 8.11523 5.625 8.37757 5.625 8.70117C5.625 9.02478 5.88733 9.28711 6.21094 9.28711Z" fill="#2C333F"/>
    <path d="M6.21094 11.8359C6.53454 11.8359 6.79688 11.5736 6.79688 11.25C6.79688 10.9264 6.53454 10.6641 6.21094 10.6641C5.88733 10.6641 5.625 10.9264 5.625 11.25C5.625 11.5736 5.88733 11.8359 6.21094 11.8359Z" fill="#2C333F"/>
    <path d="M8.75977 9.28711C9.08337 9.28711 9.3457 9.02478 9.3457 8.70117C9.3457 8.37757 9.08337 8.11523 8.75977 8.11523C8.43616 8.11523 8.17383 8.37757 8.17383 8.70117C8.17383 9.02478 8.43616 9.28711 8.75977 9.28711Z" fill="#2C333F"/>
    <path d="M11.3086 9.28711C11.6322 9.28711 11.8945 9.02478 11.8945 8.70117C11.8945 8.37757 11.6322 8.11523 11.3086 8.11523C10.985 8.11523 10.7227 8.37757 10.7227 8.70117C10.7227 9.02478 10.985 9.28711 11.3086 9.28711Z" fill="#2C333F"/>
    <path d="M8.75977 11.8359C9.08337 11.8359 9.3457 11.5736 9.3457 11.25C9.3457 10.9264 9.08337 10.6641 8.75977 10.6641C8.43616 10.6641 8.17383 10.9264 8.17383 11.25C8.17383 11.5736 8.43616 11.8359 8.75977 11.8359Z" fill="#2C333F"/>
</svg>
