<svg width="13" height="13" viewBox="0 0 13 13" fill="none" xmlns="http://www.w3.org/2000/svg">
    <path d="M12.2384 0.761871C11.7471 0.270563 11.094 0 10.3992 0C9.70443 0 9.05123 0.270562 8.55995 0.761846L1.29074 8.03108C1.22889 8.09293 1.18408 8.16971 1.16061 8.25398L0.018849 12.356C-0.0303834 12.5329 0.0197123 12.7227 0.149941 12.8522C0.246425 12.9482 0.375714 13 0.508101 13C0.554363 13 0.601031 12.9937 0.64681 12.9807L4.74884 11.8155C4.92191 11.7663 5.05607 11.6292 5.10147 11.4551C5.14687 11.281 5.09675 11.0959 4.96972 10.9684L2.38363 8.37451L8.40921 2.34891L10.6501 4.58984L6.03732 9.19009C5.83874 9.38813 5.8383 9.70965 6.03635 9.90823C6.23437 10.1068 6.55595 10.1072 6.7545 9.90922L12.2384 4.44029C12.7297 3.949 13.0002 3.29583 13.0002 2.60107C13.0002 1.9063 12.7297 1.25313 12.2384 0.761871ZM3.64113 11.0743L1.23999 11.7564L1.91246 9.3404L3.64113 11.0743ZM11.5207 3.72163L11.3693 3.87268L9.12738 1.63076L9.27815 1.47999C9.57758 1.18054 9.97571 1.01562 10.3992 1.01562C10.8227 1.01562 11.2208 1.18054 11.5202 1.48002C11.8197 1.77945 11.9846 2.17758 11.9846 2.60107C11.9846 3.02456 11.8197 3.42268 11.5207 3.72163Z" fill="#EF0D33"/>
</svg>
