<svg width="20" height="20" viewBox="0 0 20 20" fill="none" xmlns="http://www.w3.org/2000/svg">
    <circle cx="10" cy="10" r="10" fill="#E1E1E1"/>
    <path d="M13.4277 14H7.58008V12.8398L10.3398 9.89844C10.7188 9.48438 10.998 9.12305 11.1777 8.81445C11.3613 8.50586 11.4531 8.21289 11.4531 7.93555C11.4531 7.55664 11.3574 7.25977 11.166 7.04492C10.9746 6.82617 10.7012 6.7168 10.3457 6.7168C9.96289 6.7168 9.66016 6.84961 9.4375 7.11523C9.21875 7.37695 9.10938 7.72266 9.10938 8.15234H7.41016C7.41016 7.63281 7.5332 7.1582 7.7793 6.72852C8.0293 6.29883 8.38086 5.96289 8.83398 5.7207C9.28711 5.47461 9.80078 5.35156 10.375 5.35156C11.2539 5.35156 11.9355 5.5625 12.4199 5.98438C12.9082 6.40625 13.1523 7.00195 13.1523 7.77148C13.1523 8.19336 13.043 8.62305 12.8242 9.06055C12.6055 9.49805 12.2305 10.0078 11.6992 10.5898L9.75977 12.6348H13.4277V14Z" fill="white"/>
</svg>
