<svg width="20" height="20" viewBox="0 0 20 20" fill="none" xmlns="http://www.w3.org/2000/svg">
    <path d="M19.9487 17.1371C19.8608 16.7147 19.4472 16.4436 19.0246 16.5315C18.6022 16.6195 18.3311 17.0332 18.4191 17.4556C18.4697 17.6989 18.4094 17.9482 18.2536 18.1399C18.1634 18.2509 17.9622 18.437 17.6287 18.437H2.37074C2.03723 18.437 1.83603 18.2508 1.7458 18.1399C1.58998 17.9483 1.52967 17.6989 1.58033 17.4556C2.39109 13.5613 5.82595 10.7167 9.7926 10.6207C9.86131 10.6234 9.93033 10.6247 9.9997 10.6247C10.0693 10.6247 10.1386 10.6233 10.2076 10.6207C13.0017 10.6877 15.5843 12.1029 17.1483 14.4354C17.3886 14.7938 17.8738 14.8895 18.2322 14.6492C18.5906 14.409 18.6863 13.9237 18.446 13.5653C17.1642 11.6535 15.3028 10.2633 13.1804 9.56477C14.4737 8.59492 15.3121 7.04969 15.3121 5.31235C15.3121 2.38314 12.929 0 9.9997 0C7.07045 0 4.68735 2.38314 4.68735 5.31235C4.68735 7.05074 5.5267 8.59679 6.82139 9.56657C5.63518 9.9571 4.52212 10.5648 3.54793 11.3661C1.76158 12.8355 0.519541 14.885 0.0506867 17.1371C-0.0962623 17.8428 0.0797874 18.5676 0.533603 19.1257C0.985192 19.681 1.65482 19.9994 2.37074 19.9994H17.6286C18.3446 19.9994 19.0142 19.681 19.4658 19.1257C19.9197 18.5676 20.0957 17.8428 19.9487 17.1371ZM6.24981 5.31235C6.24981 3.24464 7.93199 1.56246 9.9997 1.56246C12.0674 1.56246 13.7496 3.24464 13.7496 5.31235C13.7496 7.3164 12.1694 8.9583 10.1895 9.05748C10.1263 9.05631 10.0631 9.05572 9.9997 9.05572C9.93666 9.05572 9.87361 9.05635 9.81065 9.05752C7.83043 8.95873 6.24981 7.31667 6.24981 5.31235Z" fill="#F2F2F2"/>
</svg>
