<svg width="81" height="16" viewBox="0 0 81 16" fill="none" xmlns="http://www.w3.org/2000/svg">
    <g clip-path="url(#clip0)">
        <path d="M0 15.7258V0.295349H8.0948V3.19581H3.16301V6.07518H8.88555V8.97564H3.16301V12.8253H9.43699V15.7258H0Z" fill="white"/>
        <path d="M14.8786 0.295349V12.8359H21.0069V15.7364H11.7052V0.295349H14.8786Z" fill="white"/>
        <path d="M25.9387 15.7258H22.7653V0.295349H25.9387V15.7258Z" fill="white"/>
        <path d="M39.6728 0.29532H42.8462V16L32.015 6.85564V15.7258H28.8416V0L39.6728 9.21819V0.29532V0.29532Z" fill="#EF0D33"/>
        <path d="M45.7491 15.7258V0.295349H53.8439V3.19581H48.9122V6.07518H54.6347V8.97564H48.9122V12.8253H55.1861V15.7258H45.7491Z" fill="white"/>
        <path d="M56.0706 0.295349H59.6497L62.9376 5.4529L66.1422 0.295349H69.4925L64.9353 7.61506L70.148 15.7364H66.5896L62.9168 9.98816L59.3792 15.7258H56.0289L60.9191 7.79436L56.0706 0.295349Z" fill="white"/>
        <path d="M73.8312 15.7258V3.19581H70.0648V0.295349H81V3.19581H76.9942V15.7364L73.8312 15.7258Z" fill="white"/>
    </g>
    <defs>
        <clipPath id="clip0">
            <rect width="81" height="16" fill="white"/>
        </clipPath>
    </defs>
</svg>
