<svg width="20" height="20" viewBox="0 0 20 20" fill="none" xmlns="http://www.w3.org/2000/svg">
    <path d="M14.182 4.21875H8.82857C8.41358 4.21875 8.07404 4.57031 8.07404 5C8.07404 5.42969 8.41358 5.78125 8.82857 5.78125H14.182C14.597 5.78125 14.9366 5.42969 14.9366 5C14.9366 4.57031 14.6008 4.21875 14.182 4.21875Z" fill="#F2F2F2"/>
    <path d="M14.182 7.34375H8.82857C8.41358 7.34375 8.07404 7.69531 8.07404 8.125C8.07404 8.55469 8.41358 8.90625 8.82857 8.90625H14.182C14.597 8.90625 14.9366 8.55469 14.9366 8.125C14.9366 7.69531 14.6008 7.34375 14.182 7.34375Z" fill="#F2F2F2"/>
    <path d="M11.1299 10.4688H8.82857C8.41358 10.4688 8.07404 10.8203 8.07404 11.25C8.07404 11.6797 8.41358 12.0312 8.82857 12.0312H11.1299C11.5449 12.0312 11.8845 11.6797 11.8845 11.25C11.8845 10.8203 11.5487 10.4688 11.1299 10.4688Z" fill="#F2F2F2"/>
    <path d="M17.2455 10.625C17.6605 10.625 18 10.2734 18 9.84375V3.125C18 1.40234 16.6456 0 14.9818 0H8.03631C6.37255 0 5.01816 1.40234 5.01816 3.12109C3.3544 3.12109 2 4.52344 2 6.24609V16.8711C2 18.5938 3.3544 19.9961 5.01816 19.9961H12.3372C14.0009 19.9961 15.3553 18.5938 15.3553 16.8711V16.8477C16.8418 16.6562 17.9962 15.3359 17.9962 13.7461C17.9962 13.3164 17.6567 12.9648 17.2417 12.9648C16.8267 12.9648 16.4871 13.3164 16.4871 13.7461C16.4871 14.6094 15.8118 15.3086 14.9781 15.3086H8.03631C7.63263 15.3086 7.25536 15.1445 6.96864 14.8516C6.68191 14.5547 6.52723 14.1641 6.52723 13.7461V3.125C6.52723 2.26172 7.20255 1.5625 8.03631 1.5625H14.9781C15.8118 1.5625 16.4871 2.26172 16.4871 3.125V9.84375C16.4909 10.2773 16.8267 10.625 17.2455 10.625ZM8.03631 16.875H13.8463C13.8463 17.7344 13.1672 18.4375 12.3372 18.4375H5.01816C4.18816 18.4375 3.50908 17.7344 3.50908 16.875V6.25C3.50908 5.38672 4.18439 4.6875 5.01816 4.6875V13.75C5.01816 14.5859 5.33129 15.3711 5.90097 15.9609C6.47442 16.5508 7.23273 16.875 8.03631 16.875Z" fill="#F2F2F2"/>
</svg>
