<svg width="13" height="13" viewBox="0 0 13 13" fill="none" xmlns="http://www.w3.org/2000/svg">
    <path d="M11.9844 2.10742H8.91211V1.52344C8.91211 0.683414 8.2287 0 7.38867 0H5.61133C4.7713 0 4.08789 0.683414 4.08789 1.52344V2.10742H1.01562C0.73516 2.10742 0.507812 2.33477 0.507812 2.61523C0.507812 2.8957 0.73516 3.12305 1.01562 3.12305H1.54152L2.16039 11.1462C2.16056 11.1485 2.16077 11.1509 2.16097 11.1532C2.20708 11.6591 2.4391 12.1263 2.81427 12.4689C3.18944 12.8114 3.67583 13 4.18382 13H8.81618C9.87413 13 10.7438 12.2121 10.839 11.1672C10.8645 10.8879 10.6587 10.6409 10.3794 10.6154C10.0999 10.5899 9.85306 10.7957 9.82759 11.075C9.78034 11.5934 9.34553 11.9844 8.81618 11.9844H4.18382C3.65628 11.9844 3.22215 11.589 3.17269 11.0642L2.56016 3.12305H10.4398L10.0061 8.74611C9.98456 9.02573 10.1938 9.26989 10.4734 9.29147C10.4867 9.29249 10.4999 9.29299 10.513 9.29299C10.7757 9.29299 10.9982 9.09053 11.0187 8.82421L11.4585 3.12305H11.9844C12.2648 3.12305 12.4922 2.8957 12.4922 2.61523C12.4922 2.33477 12.2648 2.10742 11.9844 2.10742ZM7.89648 2.10742H5.10352V1.52344C5.10352 1.24343 5.33132 1.01562 5.61133 1.01562H7.38867C7.66868 1.01562 7.89648 1.24343 7.89648 1.52344V2.10742Z" fill="#EF0D33"/>
    <path d="M4.19263 4.13913C3.91244 4.15137 3.69522 4.38842 3.70746 4.66863L3.96137 10.4814C3.97328 10.754 4.19806 10.9671 4.46832 10.9671C4.47578 10.9671 4.48332 10.9669 4.49086 10.9665C4.77105 10.9543 4.98827 10.7173 4.97603 10.437L4.72212 4.62427C4.70988 4.34411 4.47238 4.12654 4.19263 4.13913Z" fill="#EF0D33"/>
    <path d="M8.27778 4.62432L8.02387 10.4371C8.01163 10.7173 8.22885 10.9544 8.50903 10.9666C8.51657 10.9669 8.52409 10.9671 8.53158 10.9671C8.80181 10.9671 9.02662 10.7541 9.03853 10.4814L9.29243 4.66868C9.30467 4.3885 9.08746 4.15142 8.80727 4.13919C8.52754 4.12667 8.29001 4.34414 8.27778 4.62432Z" fill="#EF0D33"/>
    <path d="M5.99219 4.64648V10.4592C5.99219 10.7397 6.21954 10.967 6.5 10.967C6.78046 10.967 7.00781 10.7397 7.00781 10.4592V4.64648C7.00781 4.36602 6.78046 4.13867 6.5 4.13867C6.21954 4.13867 5.99219 4.36602 5.99219 4.64648Z" fill="#EF0D33"/>
</svg>
