<svg width="30" height="30" viewBox="0 0 30 30" fill="none" xmlns="http://www.w3.org/2000/svg">
    <circle cx="15" cy="15" r="15" fill="#E9E9E9"/>
    <path d="M15 10.4688C12.5014 10.4688 10.4688 12.5015 10.4688 15C10.4688 17.4985 12.5014 19.5312 15 19.5312C15.4667 19.5312 15.9271 19.4604 16.3686 19.3207C16.78 19.1905 17.0079 18.7515 16.8777 18.3401C16.7475 17.9287 16.3084 17.7008 15.8971 17.831C15.6083 17.9224 15.3065 17.9688 15 17.9688C13.363 17.9688 12.0312 16.637 12.0312 15C12.0312 13.363 13.363 12.0312 15 12.0312C16.637 12.0312 17.9688 13.363 17.9688 15C17.9688 15.2845 17.9287 15.5656 17.8498 15.8354C17.7287 16.2495 17.9662 16.6834 18.3804 16.8045C18.7946 16.9257 19.2284 16.6881 19.3495 16.274C19.4701 15.8616 19.5312 15.433 19.5312 15C19.5312 12.5015 17.4986 10.4688 15 10.4688Z" fill="#EF0D33"/>
    <path d="M22.6562 12.2657H22.2629C22.1593 12.2657 22.0655 12.2005 22.0249 12.1021L22.0179 12.0852C21.9759 11.9839 21.996 11.8711 22.0691 11.7979L22.3474 11.5197C23.2612 10.6059 23.2612 9.11898 22.3474 8.20516L21.795 7.65273C21.3523 7.21004 20.7637 6.96625 20.1377 6.96625C19.5116 6.96625 18.923 7.21004 18.4804 7.65273L18.2022 7.9309C18.1289 8.00414 18.0161 8.02422 17.9152 7.9823L17.9005 7.97621C17.7996 7.93453 17.7344 7.84074 17.7344 7.73727V7.34375C17.7344 6.05141 16.683 5 15.3907 5H14.6094C13.3171 5 12.2657 6.05141 12.2657 7.34375V7.73727C12.2657 7.84074 12.2005 7.93453 12.1005 7.97582L12.0852 7.98215C11.984 8.02426 11.8711 8.00414 11.7979 7.93094L11.5197 7.65273C11.0771 7.21004 10.4885 6.96625 9.86242 6.96625C9.23637 6.96625 8.64781 7.21004 8.20512 7.65273L7.6527 8.20508C6.73887 9.11895 6.73887 10.6058 7.65273 11.5197L7.9309 11.7979C8.0041 11.8711 8.02418 11.9839 7.98094 12.0881L7.97621 12.0995C7.93457 12.2004 7.8407 12.2656 7.73723 12.2656H7.34375C6.05141 12.2656 5 13.317 5 14.6093V15.3906C5 16.6829 6.05141 17.7343 7.34375 17.7343H7.73719C7.8407 17.7343 7.93449 17.7995 7.97516 17.8979L7.98211 17.9148C8.02418 18.0161 8.00406 18.1289 7.93086 18.2021L7.6527 18.4803C7.21 18.923 6.96621 19.5115 6.96621 20.1376C6.96621 20.7636 7.21 21.3521 7.65266 21.7948L8.20508 22.3473C8.64777 22.79 9.23637 23.0338 9.86238 23.0338C10.4885 23.0338 11.077 22.79 11.5197 22.3473L11.7979 22.0691C11.871 21.9959 11.9839 21.9758 12.0848 22.0177L12.0996 22.0238C12.2005 22.0655 12.2656 22.1593 12.2656 22.2627V22.6562C12.2656 23.9486 13.317 25 14.6094 25H15.3906C16.683 25 17.7344 23.9486 17.7344 22.6562V22.2627C17.7344 22.1593 17.7995 22.0655 17.8996 22.0242L17.9148 22.0179C18.0161 21.9758 18.1289 21.9959 18.2021 22.0691L18.4803 22.3473C18.923 22.79 19.5116 23.0338 20.1376 23.0338C20.7637 23.0338 21.3522 22.79 21.7949 22.3473L22.3473 21.7948C22.79 21.3522 23.0338 20.7636 23.0338 20.1376C23.0338 19.5115 22.79 18.923 22.3473 18.4803L22.0691 18.2021C21.9959 18.1289 21.9758 18.0161 22.0179 17.9148L22.0238 17.9005C22.0655 17.7996 22.1593 17.7344 22.2628 17.7344H22.6562C23.9486 17.7344 25 16.683 25 15.3907V14.6094C25 13.3171 23.9486 12.2657 22.6562 12.2657ZM23.4375 15.3906C23.4375 15.8214 23.087 16.1719 22.6562 16.1719H22.2628C21.5243 16.1719 20.8636 16.6163 20.5796 17.304L20.5745 17.3163C20.2895 18.0037 20.4423 18.785 20.9642 19.307L21.2425 19.5852C21.39 19.7327 21.4713 19.9289 21.4713 20.1376C21.4713 20.3463 21.39 20.5424 21.2424 20.69L20.69 21.2424C20.5424 21.39 20.3463 21.4713 20.1376 21.4713C19.9289 21.4713 19.7327 21.39 19.5852 21.2424L19.3069 20.9642C18.7847 20.4421 18.003 20.2893 17.3151 20.575L17.3041 20.5796C16.6163 20.8636 16.1719 21.5243 16.1719 22.2627V22.6562C16.1719 23.087 15.8214 23.4375 15.3906 23.4375H14.6094C14.1786 23.4375 13.8281 23.087 13.8281 22.6562V22.2627C13.8281 21.5243 13.3837 20.8636 12.6951 20.5793L12.6846 20.5749C12.4545 20.4793 12.214 20.4329 11.9761 20.4329C11.503 20.4329 11.0405 20.6168 10.693 20.9642L10.4148 21.2425C10.2673 21.39 10.0711 21.4713 9.86242 21.4713C9.65375 21.4713 9.45754 21.39 9.31 21.2424L8.75758 20.69C8.61 20.5424 8.52875 20.3463 8.52875 20.1376C8.52875 19.9289 8.61 19.7327 8.75758 19.5852L9.03578 19.307C9.5577 18.785 9.71059 18.0037 9.42547 17.3163L9.42039 17.304C9.13633 16.6163 8.47566 16.1719 7.73723 16.1719H7.34375C6.91297 16.1719 6.5625 15.8214 6.5625 15.3906V14.6094C6.5625 14.1786 6.91297 13.8281 7.34375 13.8281H7.73723C8.4757 13.8281 9.13637 13.3837 9.42145 12.6935L9.42508 12.6846C9.7107 11.997 9.55789 11.2152 9.03574 10.693L8.75758 10.4149C8.45293 10.1102 8.45293 9.61461 8.75758 9.31L9.30996 8.75758C9.45758 8.61004 9.65375 8.52875 9.86242 8.52875C10.0711 8.52875 10.2673 8.61 10.4148 8.75758L10.6931 9.03582C11.2153 9.55793 11.9971 9.71074 12.6849 9.42496L12.6959 9.42039C13.3837 9.13641 13.8281 8.47574 13.8281 7.73727V7.34375C13.8281 6.91297 14.1786 6.5625 14.6094 6.5625H15.3906C15.8214 6.5625 16.1719 6.91297 16.1719 7.34375V7.73727C16.1719 8.47574 16.6163 9.13641 17.3049 9.4207L17.3154 9.42508C18.003 9.71062 18.7847 9.55785 19.307 9.03574L19.5852 8.7575C19.7327 8.60996 19.9289 8.52871 20.1376 8.52871C20.3463 8.52871 20.5425 8.61 20.69 8.75754L21.2424 9.30996C21.5471 9.61457 21.5471 10.1102 21.2425 10.4148L20.9642 10.693C20.4421 11.2152 20.2893 11.9969 20.5737 12.6817L20.5796 12.696C20.8637 13.3837 21.5243 13.8281 22.2628 13.8281H22.6562C23.087 13.8281 23.4375 14.1786 23.4375 14.6094V15.3906Z" fill="#EF0D33"/>
</svg>
