<svg width="20" height="20" viewBox="0 0 20 20" fill="none" xmlns="http://www.w3.org/2000/svg">
    <g clip-path="url(#clip0)">
        <path d="M16.9961 5.02311C16.7305 4.75579 16.3125 4.71648 16.0039 4.92876C14.8359 5.73073 8.97266 9.76414 8.33984 10.3971C7.42578 11.317 7.42578 12.8148 8.33984 13.7347C8.79687 14.1946 9.39844 14.4226 9.99609 14.4226C10.5977 14.4226 11.1953 14.1946 11.6523 13.7347C12.2812 13.1017 16.2891 7.201 17.0859 6.02164C17.3008 5.70714 17.2617 5.29044 16.9961 5.02311ZM10.5508 12.6182C10.2461 12.9248 9.75 12.9248 9.44531 12.6182C9.14062 12.3116 9.14062 11.8123 9.44531 11.5057C9.69141 11.2619 11.3555 10.0668 13.4023 8.63589C11.9805 10.6998 10.793 12.3745 10.5508 12.6182Z" fill="#F2C94C"/>
        <path d="M3.60156 15.7199L2.63672 16.1916C1.93359 14.9258 1.5625 13.5106 1.5625 12.0639C1.5625 11.0025 1.75781 9.98821 2.11328 9.04865L3.21875 9.58329C3.32812 9.6344 3.44141 9.66192 3.55469 9.66192C3.84766 9.66192 4.125 9.49681 4.25781 9.21376C4.44531 8.82064 4.28125 8.35283 3.89062 8.16413L2.80078 7.63735C4.15625 5.41228 6.50391 3.85946 9.21875 3.60786V4.79115C9.21875 5.22359 9.57031 5.5774 10 5.5774C10.4297 5.5774 10.7812 5.22359 10.7812 4.79115V3.60786C11.7109 3.69435 12.6133 3.93022 13.4688 4.31941C13.8633 4.49631 14.3242 4.32334 14.5039 3.92629C14.6797 3.52924 14.5078 3.06536 14.1133 2.88452C12.8164 2.29877 11.4336 2 10 2C7.32812 2 4.81641 3.0457 2.92969 4.9484C1.03906 6.84717 0 9.37494 0 12.0639C0 14.0491 0.585938 15.9833 1.69531 17.6501C1.84375 17.8742 2.08984 18 2.34375 18C2.46094 18 2.57422 17.9725 2.6875 17.9214L4.28906 17.1351C4.67578 16.9464 4.83984 16.4747 4.64844 16.0855C4.45703 15.6924 3.99219 15.5312 3.60156 15.7199Z" fill="#F2C94C"/>
        <path d="M19.1172 7.92827C18.9415 7.53122 18.4766 7.35825 18.0821 7.53515C17.6875 7.71206 17.5157 8.17987 17.6915 8.57692C18.1836 9.67766 18.4336 10.8492 18.4336 12.0678C18.4336 13.5184 18.0625 14.9337 17.3555 16.2035L16.3477 15.7199C15.9571 15.5352 15.4922 15.7003 15.3047 16.0934C15.1211 16.4865 15.2852 16.9543 15.6758 17.143L17.3165 17.9293C17.4258 17.9804 17.5391 18.0039 17.6524 18.0039C17.9063 18.0039 18.1524 17.8781 18.3008 17.6541C19.4141 15.9833 20 14.0492 20 12.0639C20 10.6211 19.7032 9.2295 19.1172 7.92827Z" fill="#F2C94C"/>
    </g>
    <defs>
        <clipPath id="clip0">
            <rect width="20" height="20" fill="white"/>
        </clipPath>
    </defs>
</svg>
